<svg xmlns="http://www.w3.org/2000/svg" viewBox="0 0 152 25"><path d="M47.819 18.26a3.315 3.315 0 01-.141.984H38.02a1.07 1.07 0 01-1.07-1.069 3.136 3.136 0 01.958-2.105l6.337-7.073a.451.451 0 00-.336-.753h-6.835a5.766 5.766 0 01-.118-1 5.769 5.769 0 01.118-1h9.067a.895.895 0 01.895.894v.01a3.465 3.465 0 01-.93 2.27l-6.24 7.077a.451.451 0 00.338.75h7.474a2.929 2.929 0 01.14.927M57.454 11.244a1.132 1.132 0 001.063-1.505 3.234 3.234 0 00-3.304-2.262 4.033 4.033 0 00-4.024 3.767zm1.582 2h-7.96a4.29 4.29 0 004.277 4.273 5.669 5.669 0 003.939-1.377 2.599 2.599 0 011.238 1.546 7.824 7.824 0 01-5.205 1.912c-3.883 0-6.612-2.727-6.612-6.972 0-4.105 2.814-7.057 6.415-7.057a5.696 5.696 0 015.909 5.876v.021a1.785 1.785 0 01-1.789 1.778M64.036 19.244V5.837a2.078 2.078 0 01.864-.113 5.255 5.255 0 011.136.113v13.27a5.255 5.255 0 01-1.136.112 5.523 5.523 0 01-1.154-.112m-.478-17.15a1.604 1.604 0 013.208 0A1.579 1.579 0 0164.9 3.56a1.608 1.608 0 01-1.632-1.603M78.663 18.067a5.73 5.73 0 01-3.713 1.405c-2.673 0-4.614-1.265-4.913-4.442V8.244h-1.98a12.204 12.204 0 01-.113-1.367c0-.309.028-.59.113-.633h1.104c.649-.266 1.175-.792.875-1.44V2.407a10.64 10.64 0 011.425-.112c.366 0 .732.028.575.112v3.837h5.783c.085.043.113.324.113.633a12.297 12.297 0 01-.113 1.367h-5.783v6.337c.522 2.389 1.648 2.895 3.082 2.895a4.318 4.318 0 002.532-1.012 2.554 2.554 0 011.013 1.603" fill="#12324c"/><path d="M79.235 12.5A6.724 6.724 0 0186.1 5.472a6.573 6.573 0 014.39 1.546 2.784 2.784 0 01-1.295 1.659A4.808 4.808 0 0086.1 7.524c-3.151 0-4.558 2.418-4.558 4.976s1.407 4.92 4.558 4.92a4.782 4.782 0 003.292-1.237 2.683 2.683 0 011.294 1.575A6.7 6.7 0 0186.1 19.5c-4.023 0-6.865-2.615-6.865-7M97.632 17.476a11.797 11.797 0 001.353-.077 2.355 2.355 0 002.051-2.356V13.71a8.632 8.632 0 00-3.686-.731c-1.828 0-3.123.59-3.123 2.108 0 1.434 1.126 2.39 3.405 2.39m5.404-7.231v6.792a1.22 1.22 0 01-.832 1.682 14.233 14.233 0 01-4.473.782c-4.051-.001-5.711-1.856-5.711-4.302 0-2.7 2.363-4.217 5.458-4.217a8.646 8.646 0 013.559.675v-1.012c.127-1.996-1.167-3.065-3.503-3.065a6.386 6.386 0 00-3.77 1.21 2.091 2.091 0 01-1.154-1.52 7.608 7.608 0 015.036-1.798c3.18 0 5.74 1.461 5.74 5.173M105.598 17.842a3.188 3.188 0 011.294-1.63 5.327 5.327 0 003.827 1.292c2.391 0 3.32-.9 3.32-2.052 0-1.096-.816-1.771-3.377-2.08s-4.754-1.237-4.754-3.908c0-2.249 1.969-3.992 5.345-3.992a7.727 7.727 0 014.642 1.321 3.14 3.14 0 01-.984 1.715A7.268 7.268 0 00111 7.468c-1.998 0-2.87.703-2.87 1.743s.59 1.63 3.01 1.967c3.152.422 5.12 1.519 5.12 3.965 0 2.727-2.11 4.357-5.542 4.357a7.27 7.27 0 01-5.12-1.658M128.259 18.067a5.73 5.73 0 01-3.714 1.405c-2.673 0-4.614-1.265-4.509-4.442V8.244h-2.384a12.238 12.238 0 01-.113-1.367c0-.309.028-.59.113-.633h1.104a2 2 0 001.28-1.44V2.407a3.555 3.555 0 011.02-.112 3.337 3.337 0 01.98.112v3.837h5.379c.084.043.112.324.112.633a12.297 12.297 0 01-.112 1.367h-5.379v6.337c.117 2.389 1.243 2.895 2.678 2.895a4.318 4.318 0 002.532-1.012 2.555 2.555 0 011.013 1.603M137.503 11.244a1.132 1.132 0 001.063-1.505 3.234 3.234 0 00-3.304-2.262 4.033 4.033 0 00-4.024 3.767zm1.533 2h-7.96a4.29 4.29 0 004.277 4.273 5.668 5.668 0 003.938-1.377 2.598 2.598 0 011.239 1.546 7.824 7.824 0 01-5.205 1.912c-3.883 0-6.612-2.727-6.612-6.972 0-4.105 2.814-7.057 6.415-7.057a5.696 5.696 0 015.908 5.876v.021a1.785 1.785 0 01-1.788 1.778M151.429 7.89a9.674 9.674 0 00-2.42-.282 6.697 6.697 0 00-2.045.289 1.417 1.417 0 00-.928 1.174v10.036a4.14 4.14 0 01-1.079.112 2.507 2.507 0 01-.921-.112V7.27a7.568 7.568 0 015.114-1.8 8.368 8.368 0 012.842.45 3.006 3.006 0 01-.563 1.969M7.58 16.012q.179.008.356.008a7.891 7.891 0 005.466-2.193c.027-.026.05-.055.078-.089a.716.716 0 00.076-.061l5.92-5.747a2.121 2.121 0 00-1.449-3.686H7.942a3.805 3.805 0 00-1.758.381 4.072 4.072 0 00-2.022 5.072 3.81 3.81 0 002.267 2.309 4.078 4.078 0 004.291-.852 3.982 3.982 0 001.232-2.894 1 1 0 00-2.002 0 1.999 1.999 0 01-.618 1.452 2.069 2.069 0 01-2.256.392 1.854 1.854 0 01-.998-1.018 2.051 2.051 0 01.4-2.224 2.003 2.003 0 011.455-.618h9.948a.19.19 0 01.19.128.189.189 0 01-.048.224L12.18 12.27a.723.723 0 00-.067.078l-.007.005a.595.595 0 00-.066.053 5.925 5.925 0 01-5.966 1.336 5.683 5.683 0 01-3.695-3.659 5.954 5.954 0 012.563-7.016 5.817 5.817 0 013.103-.823h20.574l-4.426 4.298a1 1 0 00.682 1.717.96.96 0 00.712-.282l4.501-4.37a1.886 1.886 0 00.611-1.205A1.97 1.97 0 0028.743.244H8.169a8.201 8.201 0 00-5.197 1.74A7.896 7.896 0 00.016 8.677a8.003 8.003 0 007.565 7.41" fill="#1e3dff"/><path d="M32.25 16.886a8.003 8.003 0 00-7.566-7.41 7.868 7.868 0 00-5.82 2.186.828.828 0 00-.075.086l-.008.006a.665.665 0 00-.072.058l-5.918 5.746a2.121 2.121 0 001.448 3.687h10.083a3.807 3.807 0 001.756-.38 4.071 4.071 0 002.031-5.057 3.82 3.82 0 00-2.277-2.324 4.062 4.062 0 00-4.286.851 3.981 3.981 0 00-1.232 2.893 1 1 0 002.002 0 2 2 0 01.618-1.452 2.07 2.07 0 012.233-.401 1.852 1.852 0 011.017 1.018 2.052 2.052 0 01-.398 2.233 2.002 2.002 0 01-1.453.618h-9.948a.205.205 0 01-.143-.352l5.845-5.674a.745.745 0 00.066-.078l.007-.005a.627.627 0 00.066-.053 5.946 5.946 0 015.93-1.352 5.667 5.667 0 013.72 3.636 5.957 5.957 0 01-2.547 7.054 5.818 5.818 0 01-3.107.825H3.69l4.725-4.587a1 1 0 00-1.395-1.435l-4.797 4.658a1.888 1.888 0 00-.612 1.204 1.97 1.97 0 001.955 2.16h20.53a8.202 8.202 0 005.197-1.74 7.896 7.896 0 002.956-6.694" fill="#12324c"/></svg>